# xmcd CD Database Entry
#
# Track frame offsets:
# 182
# 38732
# 57532
# 76260
# 95282
# 115007
# 146357
# 185810
# 190717
# 200017
# 208287
# 228512
# 241607
# 259725
# 270535
#
# Disc length: 3816 seconds
#
# Revision: 3
# Processed by: cddbd v1.4PL0 Copyright (c) Steve Scherf et al.
# Submitted via: tcd 2.0b
#
DISCID=d10ee60f
DTITLE=Various Artist - The Best of Johann Sebastian Bach
DYEAR=1900
DGENRE=
TTITLE0=Toccata and Fugue (in D minor BWV 565)
TTITLE1=Italian Concerto in F major BWV 971 (without indication of mo
TTITLE1=vement)
TTITLE2=Andante
TTITLE3=Presto
TTITLE4=Double Violin Concerto in D minor BWV 1043  (Vivace)
TTITLE5=Air from the Suite No. 3 (in D major BWV 1068)
TTITLE6=Orchestra Suite No. 4 in D major BWV 1069 (Grave - Allegro)
TTITLE7=Bourie I
TTITLE8=Bourie II
TTITLE9=Gavotte
TTITLE10=Menuetto
TTITLE11=Rijouissance
TTITLE12=Concerto for 4 harpsichords and Orchestra in A minor BWV 1065
TTITLE12=(without indication)
TTITLE13=Largo
TTITLE14=Allegro
EXTD=
EXTT0=
EXTT1=
EXTT2=
EXTT3=
EXTT4=
EXTT5=
EXTT6=
EXTT7=
EXTT8=
EXTT9=
EXTT10=
EXTT11=
EXTT12=
EXTT13=
EXTT14=
PLAYORDER=
